<svg class="client-logo" width="240" height="39" viewBox="0 0 240 39" xmlns="http://www.w3.org/2000/svg" aria-hidden="true">
  <path d="M23.78 6.275c-6.074 0-9.872 3.038-11.39 9.112 2.278-3.038 4.936-4.177 7.973-3.418 1.733.433 2.971 1.69 4.342 3.083 2.234 2.266 4.818 4.89 10.465 4.89 6.074 0 9.87-3.037 11.39-9.112-2.278 3.038-4.936 4.178-7.974 3.418-1.732-.432-2.97-1.69-4.342-3.083-2.234-2.266-4.818-4.89-10.464-4.89zM12.39 19.943c-6.075 0-9.871 3.036-11.39 9.112 2.279-3.038 4.935-4.177 7.973-3.418 1.732.433 2.972 1.69 4.343 3.083 2.233 2.265 4.818 4.89 10.464 4.89 6.075 0 9.87-3.039 11.39-9.113-2.279 3.038-4.935 4.177-7.973 3.417-1.732-.432-2.972-1.69-4.343-3.082-2.234-2.267-4.818-4.89-10.465-4.89zm58.188-3.43V13.24h-3.903V8.833l-3.399 1.006v3.401H60.38v3.273h2.896v7.554c0 4.091 2.076 5.54 7.302 4.911v-3.054c-2.581.127-3.903.158-3.903-1.857v-7.554h3.903zM85.48 13.24v2.234c-1.195-1.637-3.054-2.645-5.508-2.645-4.281 0-7.838 3.59-7.838 8.28 0 4.658 3.557 8.278 7.838 8.278 2.454 0 4.313-1.006 5.508-2.675v2.266h3.4V13.24h-3.4zm-4.973 12.905c-2.834 0-4.974-2.108-4.974-5.037 0-2.927 2.14-5.035 4.974-5.035 2.833 0 4.973 2.108 4.973 5.035 0 2.929-2.14 5.037-4.973 5.037zm14.036-15.267c1.194 0 2.172-1.006 2.172-2.172a2.177 2.177 0 00-2.172-2.172 2.177 2.177 0 00-2.172 2.172c0 1.166.975 2.172 2.172 2.172zm-1.702 18.1h3.401V13.24h-3.4v15.738zm7.348 0h3.4V6h-3.4v22.978zm25.478-15.738l-3.085 10.858-3.272-10.858h-3.244l-3.305 10.858-3.053-10.858h-3.589l4.943 15.738h3.336l3.305-10.608 3.272 10.608h3.338l4.943-15.738h-3.589zm7.791-2.362c1.196 0 2.172-1.006 2.172-2.172a2.179 2.179 0 00-2.171-2.172 2.177 2.177 0 00-2.172 2.172c0 1.166.976 2.172 2.171 2.172zm-1.697 18.1h3.399V13.24h-3.4v15.738h.001zm15.621-16.147c-2.14 0-3.839.787-4.878 2.424V13.24h-3.399v15.738h3.399v-8.436c0-3.211 1.763-4.533 3.998-4.533 2.14 0 3.524 1.26 3.524 3.651v9.318h3.401v-9.664c0-4.09-2.519-6.483-6.044-6.483h-.001zm22.171-5.888v8.53c-1.197-1.636-3.054-2.644-5.51-2.644-4.281 0-7.837 3.59-7.837 8.28 0 4.658 3.556 8.278 7.837 8.278 2.456 0 4.313-1.006 5.51-2.675v2.266h3.399V6.943h-3.399zm-4.974 19.202c-2.833 0-4.974-2.108-4.974-5.037 0-2.927 2.141-5.035 4.974-5.035 2.832 0 4.974 2.108 4.974 5.035 0 2.929-2.142 5.037-4.974 5.037zm18.276-.424V12.547h-3.2v16.236h9.393v-3.062h-6.193zm21.221 3.063h3.478l-5.706-16.237h-3.965l-5.683 16.236h3.457l.974-2.922h6.471l.974 2.922zm-6.425-5.916l2.226-6.633 2.228 6.633h-4.454zm23.611-2.504c.951-.765 1.53-1.855 1.53-3.248 0-2.714-2.203-4.57-4.94-4.57h-6.402v16.237h6.89c2.806 0 5.055-1.925 5.055-4.708 0-1.693-.835-2.97-2.133-3.71zm-3.41-4.825c1.02 0 1.74.765 1.74 1.786s-.743 1.786-1.74 1.786h-3.2v-3.572h3.2zm.488 10.253h-3.688v-3.829h3.688c1.09 0 1.878.812 1.878 1.902 0 1.115-.788 1.927-1.878 1.927zm14.767 3.316c3.456 0 5.892-1.856 5.892-4.894 0-3.317-2.737-4.176-5.312-4.986-2.459-.743-3.084-1.277-3.084-2.274 0-.926.787-1.624 2.133-1.624 1.647 0 2.529.858 3.108 2.089l2.69-1.555c-1.09-2.274-3.13-3.641-5.798-3.641-2.783 0-5.335 1.763-5.335 4.824 0 3.084 2.413 4.13 4.894 4.847 2.413.696 3.502 1.16 3.502 2.366 0 .905-.671 1.717-2.598 1.717-2.017 0-3.153-.974-3.734-2.482l-2.737 1.6c.882 2.412 3.063 4.014 6.379 4.014v-.001z"/>
</svg>

